<?xml version="1.0" encoding="utf-8"?>
<!-- Generator: Adobe Illustrator 26.0.1, SVG Export Plug-In . SVG Version: 6.00 Build 0)  -->
<!DOCTYPE svg PUBLIC "-//W3C//DTD SVG 1.1//EN" "http://www.w3.org/Graphics/SVG/1.1/DTD/svg11.dtd" [
	<!ENTITY ns_extend "http://ns.adobe.com/Extensibility/1.0/">
	<!ENTITY ns_ai "http://ns.adobe.com/AdobeIllustrator/10.0/">
	<!ENTITY ns_graphs "http://ns.adobe.com/Graphs/1.0/">
	<!ENTITY ns_vars "http://ns.adobe.com/Variables/1.0/">
	<!ENTITY ns_imrep "http://ns.adobe.com/ImageReplacement/1.0/">
	<!ENTITY ns_sfw "http://ns.adobe.com/SaveForWeb/1.0/">
	<!ENTITY ns_custom "http://ns.adobe.com/GenericCustomNamespace/1.0/">
	<!ENTITY ns_adobe_xpath "http://ns.adobe.com/XPath/1.0/">
]>
<svg version="1.1" id="圖層_1" xmlns:x="&ns_extend;" xmlns:i="&ns_ai;" xmlns:graph="&ns_graphs;"
	 xmlns="http://www.w3.org/2000/svg" xmlns:xlink="http://www.w3.org/1999/xlink" x="0px" y="0px" width="297px" height="208.3px"
	 viewBox="0 0 297 208.3" style="enable-background:new 0 0 297 208.3;" xml:space="preserve">
<style type="text/css">
	.st0{fill:#996600;}
	.st1{fill:#003366;}
</style>
<metadata>
	<sfw  xmlns="&ns_sfw;">
		<slices></slices>
		<sliceSourceBounds  bottomLeftOrigin="true" height="208.3" width="297" x="159.2" y="-348.6"></sliceSourceBounds>
	</sfw>
</metadata>
<g>
	<g>
		<g>
			<g>
				<path class="st0" d="M169.3,116.3l-13.6-22.7c0,0-0.4-0.5-0.4-1.4l0-0.5v-1.2V50.2h-5.1v42.1v1.3c0.4,0.4,9,15,9,15h-21.2
					c0,0,8.6-14.6,9-15v-1.3V50.2h-5.1v40.4v1.2l0,0.5c0,0.9-0.4,1.4-0.4,1.4l-13.6,22.7H169.3z"/>
			</g>
			<g>
				<path class="st0" d="M165.1,20.8c0,0,2.6-10.6-6.6-17.5c0,0-3.7-3.3-10.6-3.3c-6.2,0-9.9,3.3-9.9,3.3
					c-8.4,5.8-6.2,17.5-6.2,17.5H165.1z"/>
				<path class="st0" d="M132.9,23.8h31.3c0.2-0.6,0.5-1.2,0.6-1.8h-32.5C132.4,22.6,132.6,23.2,132.9,23.8z"/>
				<path class="st0" d="M163.6,24.9h-30.3c0.3,0.6,0.7,1.2,1,1.8h28.2C163,26.1,163.3,25.5,163.6,24.9z"/>
				<path class="st0" d="M136.5,29.2h24.1c0.4-0.5,0.9-1,1.3-1.5h-26.6C135.6,28.3,136,28.8,136.5,29.2z"/>
				<path class="st0" d="M139.1,31.4h18.9c0.5-0.3,1-0.7,1.4-1.1h-21.7C138.1,30.7,138.6,31.1,139.1,31.4z"/>
				<path class="st0" d="M141.7,32.9c2.1,0.9,4.4,1.5,6.8,1.5c2.4,0,4.7-0.5,6.8-1.5H141.7z"/>
			</g>
			<path class="st1" d="M180.9,35.2h-25.6c0,0-2.4,0-4.3,1.3c-1.5,1-2.5,3.3-2.6,3.4h0c-0.1-0.1-1.1-2.4-2.6-3.4
				c-1.9-1.3-4.3-1.3-4.3-1.3h-25.6l-5.1,8.2h23.4c0,0,0.7,0,1.1,0.1c0.7,0.1,1.9,0.5,3.2,1.4c1.7,1.3,2.2,1.9,2.6,2.3
				c0.2,0.2,0.8,1,0.8,1h5.7h0.7l0,0h2h4.4c0,0,0.6-0.7,0.8-1c0.4-0.4,0.9-1.1,2.6-2.3c1.3-0.9,2.5-1.3,3.2-1.4
				c0.4-0.1,1.1-0.1,1.1-0.1H186L180.9,35.2z"/>
			<g>
				<g>
					<path class="st1" d="M113.6,45.8v38.4c0,0,0,0.4,0,0.5c0,0.4,0,0.8,0.1,1.1c0.4,4.1,1.7,7.1,4.1,11.1
						c3.8,6.3,10.6,10.6,10.6,10.6l3.2-5.1c0,0-4.4-2.3-7.8-7.6c-0.7-1.1-1.4-2.1-1.9-3.1c-0.4-0.9-0.8-1.7-1.1-2.5
						c-0.2-0.6-0.4-1.1-0.5-1.6c-0.2-0.7-0.3-1.3-0.3-1.9c0-0.2,0-1.2,0-1.2v-0.2V45.8H113.6z"/>
					<path class="st1" d="M123.3,45.8v38.8c0,0,0,0.2,0,0.3c0,0.2,0,0.5,0.1,0.7c0,0.1,0,0.3,0.1,0.4c0.1,0.6,0.3,1.1,0.5,1.9
						c0.4,1.3,1.2,2.9,2.3,4.7c2.9,4.6,7,6.8,7,6.8l3.2-5c0,0-1.1-0.6-2.4-1.8c-0.9-0.8-1.9-1.9-2.7-3.2c-0.8-1.3-1.4-2.6-1.7-3.7
						c-0.2-0.8-0.3-1.5-0.3-1.9c0-0.4,0-0.6,0-0.6V45.8H123.3z"/>
				</g>
				<g>
					<path class="st1" d="M183.5,45.8v38.4c0,0,0,0.4,0,0.5c0,0.4,0,0.8-0.1,1.1C183,90,181.7,93,179.3,97
						c-3.8,6.3-10.6,10.6-10.6,10.6l-3.2-5.1c0,0,4.4-2.3,7.8-7.6c0.7-1.1,1.4-2.1,1.9-3.1c0.4-0.9,0.8-1.7,1.1-2.5
						c0.2-0.6,0.4-1.1,0.5-1.6c0.2-0.7,0.3-1.3,0.3-1.9c0-0.2,0-1.2,0-1.2v-0.2V45.8H183.5z"/>
					<path class="st1" d="M173.7,45.8v38.8c0,0,0,0.2,0,0.3c0,0.2,0,0.5-0.1,0.7c0,0.1,0,0.3-0.1,0.4c-0.1,0.6-0.3,1.1-0.5,1.9
						c-0.4,1.3-1.2,2.9-2.3,4.7c-2.9,4.6-7,6.8-7,6.8l-3.2-5c0,0,1.1-0.6,2.4-1.8c0.9-0.8,1.9-1.9,2.7-3.2c0.8-1.3,1.4-2.6,1.7-3.7
						c0.2-0.8,0.3-1.5,0.3-1.9c0-0.4,0-0.6,0-0.6V45.8H173.7z"/>
				</g>
			</g>
		</g>
		<g>
			<g>
				<g>
					<g>
						<path class="st1" d="M191.3,133c-1.6,3-2.7,5.4-3.4,7.3c-1.1,3.2-1.6,6.5-1.6,9.9c0,5.5,1.7,11.3,5,17.2h-2.7
							c-1.8-2.4-3.3-5.2-4.5-8.2c-1.1-3.1-1.7-6.1-1.7-9.1c0-4.1,1-8.1,3.1-12.1c1.1-2.1,2.1-3.8,3.1-5.1H191.3z"/>
						<path class="st1" d="M205.4,137.8v6.6c0,10.1-1.2,17.5-3.5,22.2l-2.5-2.7c1.9-4.3,2.8-11,2.8-20.1v-8.7h14.9
							c-0.1-0.2-0.5-1-1-2.1l3.4-0.4c0.4,0.6,0.8,1.5,1.3,2.5h12.5v2.7H205.4z M215.4,161.8l2,2.2c-2.5,1.2-6.1,2.2-10.6,2.8
							l-1.5-2.8C209.6,163.7,213,163,215.4,161.8z M222.9,161.8h-14.5V150h9.8v-1.7h-11.6v-2.4H233v2.4h-11.8v1.7h9.7v11.8H222.9
							c4.6,1.1,7.8,1.9,9.7,2.4l-1.7,2.7c-1.4-0.4-2.9-0.9-4.5-1.4c-1.8-0.5-3.5-1-5.1-1.5L222.9,161.8z M218.2,154.7v-2.4h-6.7v2.4
							H218.2z M218.2,159.4v-2.5h-6.7v2.5H218.2z M227.9,154.7v-2.4h-6.7v2.4H227.9z M227.9,159.4v-2.5h-6.7v2.5H227.9z"/>
						<path class="st1" d="M250.6,141.8c-0.3,3.6-1,7.3-2.1,11l-3.4-1.4c1.3-3,2.1-6.4,2.2-10.4L250.6,141.8z M248.6,166.2l-3.1-2.9
							c2.2-1.6,3.9-3.5,5.1-5.9c1.2-2.4,1.8-6.1,1.8-11.2v-12.7h3.6v15.2C255.9,156.3,253.5,162.1,248.6,166.2z M259,152.8
							c-0.8-4.5-1.7-8-2.8-10.3l3.2-1.2c1.3,3.5,2.3,7,3.1,10.6L259,152.8z M263.1,133.8h3.4v31.9h-3.4V133.8z M270.3,152.5
							c-0.4-3.2-1.4-6.6-3.1-10.3l3.1-1.2c1.6,3.8,2.8,7.2,3.6,10.4L270.3,152.5z M274.5,133.1h3.6v33.8h-3.6V133.1z"/>
						<path class="st1" d="M296.7,150.3c0,4.1-1,8.1-3.1,12.1c-1,2-2.1,3.6-3.1,5.1h-2.7c1.6-3,2.7-5.4,3.4-7.3
							c1.1-3.2,1.6-6.5,1.6-10c0-5.5-1.7-11.3-5-17.2h2.7c1.8,2.4,3.3,5.1,4.5,8.3C296.1,144.4,296.7,147.4,296.7,150.3z"/>
						<path class="st1" d="M215.7,146.9v-3.4h8.2v3.4l3.2,0v-3.4h4.7v-2.5h-4.7v-2.4h-3.2v2.4h-8.2v-2.4h-3.2v2.4h-5.1v2.5h5.1v3.4
							L215.7,146.9z"/>
					</g>
				</g>
				<g>
					<path class="st1" d="M236.2,190.5v1.2c0,8.3-5.8,14.7-14.3,14.7s-15.3-7.3-15.3-15.7c0-8.7,7-15.8,15.7-15.8
						c4.7,0,9.3,2.1,12.3,5.8l-2.6,2.5c-2.2-3-5.8-4.9-9.5-4.9c-6.8,0-12.1,5.5-12.1,12.3c0,6.3,5.2,12.3,11.7,12.3
						c4.7,0,9.7-4,9.9-9h-7.8v-3.4H236.2z"/>
					<path class="st1" d="M272.7,202.2v3.4h-21.4l15.3-26.8h-13.1v-3.4h19.3l-15.3,26.8H272.7z"/>
					<path class="st1" d="M191.6,172.7c-1.6,3.1-2.8,5.6-3.5,7.6c-1.1,3.3-1.7,6.7-1.7,10.3c0,5.7,1.7,11.6,5.1,17.8h-2.7
						c-1.9-2.5-3.4-5.3-4.6-8.5c-1.2-3.2-1.8-6.3-1.8-9.4c0-4.2,1.1-8.4,3.2-12.5c1.1-2.2,2.2-3.9,3.2-5.2H191.6z"/>
					<path class="st1" d="M297,190.6c0,4.2-1.1,8.4-3.2,12.5c-1.1,2-2.1,3.8-3.2,5.2h-2.7c1.6-3.1,2.8-5.6,3.5-7.5
						c1.1-3.3,1.7-6.7,1.7-10.3c0-5.7-1.7-11.6-5.1-17.8h2.7c1.9,2.4,3.4,5.3,4.6,8.5C296.4,184.5,297,187.6,297,190.6z"/>
				</g>
			</g>
		</g>
	</g>
	<g>
		<path class="st1" d="M29,151.3v15.5h-3.3v-1.6H8.1v1.6H4.7v-15.3c-0.6,0.3-1.6,0.6-3,1.1L0,149.4c4.3-1,8.1-2.9,11.3-5.6h-11v-3
			H15V138c-5.4,0.1-9.2,0.2-11.5,0.2l-1.2-3.3c1.4,0,3,0.1,5,0.1c9.5,0,16.7-0.5,21.6-1.6l1.5,2.9c-3.2,0.7-7.3,1.2-12.1,1.6v3h15.1
			v3H21.9c2.7,2.6,6.6,4.4,11.8,5.5l-1.6,3.3c-0.5-0.2-1-0.4-1.6-0.6C30,151.8,29.4,151.6,29,151.3z M6.8,150.5H15v-6.6
			C12.9,146.9,10.2,149.1,6.8,150.5z M25.6,153.5H8.1v2.7h17.6V153.5z M8.1,162.2h17.6v-3.1H8.1V162.2z M18.3,143.9v6.6h8.8
			C23.5,149.1,20.6,146.9,18.3,143.9z"/>
		<path class="st1" d="M51.5,155.7c-1,3.9-2.5,7.4-4.5,10.6l-2.9-2.9c2.1-3,3.5-6.1,4.3-9.5L51.5,155.7z M49.3,150
			c-1.9-1.6-3.6-2.9-5-3.9l2.1-2.7c1.7,0.9,3.4,2.1,5.3,3.5L49.3,150z M52.7,137.2h4.7v-3.7h3.3v3.7h6.5v-3.7h3.2v3.7h5.9v2.8h-5.9
			v3.7h6.4v3h-6.8c1,1.9,3.4,3.8,7.2,5.7l-1.5,3.2c-2.2-1.3-4-2.6-5.4-3.9v7.3H58.8v2.3c0,0.8,0.4,1.2,1.2,1.2h10.6
			c1,0,1.6-0.4,1.8-1.1c0.2-0.8,0.4-2.1,0.5-4l3.4,1.2c-0.4,3.3-0.9,5.3-1.5,6c-0.6,0.6-1.8,1-3.7,1H59.7c-1.5,0-2.6-0.3-3.2-0.9
			c-0.6-0.6-0.9-1.7-0.9-3.3v-8c-0.6,0.5-1.7,1.2-3.3,2.2l-2-3c4-1.8,6.5-3.8,7.5-6H52v-3h5.5v-3.6h-4.7v-1.9l-2.2,2.7
			c-2-1.8-3.7-3.2-5.3-4.2l2.4-2.6c2,1.3,3.7,2.5,5.1,3.5V137.2z M58.8,152.7v3.5H67v-3.5H58.8z M61.5,146.7
			c-0.5,1.2-1.2,2.3-2.1,3.2h9.1c-0.8-0.9-1.5-2-2.2-3.2H61.5z M60.8,140.2v3.5h6.5v-3.5H60.8z"/>
		<path class="st1" d="M94.9,138.4c-1.3,0.2-3.1,0.4-5.5,0.6l-0.8-3c5.3-0.3,9.9-1.1,13.7-2.6l1.2,2.9c-1.7,0.6-3.5,1.1-5.4,1.5v5
			h5.4v3.1h-5.4v0.3c2.7,2.5,4.7,4.4,6,5.9l-2,3.1c-0.7-1-1.4-1.9-2.1-2.7c-0.6-0.7-1.3-1.5-1.9-2.4v16.6l-3.3,0.1v-14.7
			c-0.9,2.3-2.5,4.9-4.9,8l-2-3.2c3-3.4,5.2-7.1,6.7-11h-6.5v-3.1h6.6V138.4z M103.2,158.8v-3.3l12-1.8v-20.5h3.3v20.1l3.2-0.5v3.2
			l-3.2,0.5v10.2h-3.3V157L103.2,158.8z M110.9,151.6c-2.5-2-4.6-3.6-6.5-4.7l2.1-2.4c1.8,0.9,4,2.4,6.6,4.4L110.9,151.6z
			 M111.6,142.9c-2.6-2.1-4.8-3.7-6.4-4.7l2.1-2.4c1.5,0.9,3.7,2.3,6.5,4.4L111.6,142.9z"/>
		<path class="st1" d="M154.2,146c0.5,2.9,1.8,5.9,3.9,9.1c2,3.2,4.8,5.9,8.4,8.3l-2.7,3.3c-6.4-4.2-10.8-11.1-13.2-20.7h-0.6
			c-1.6,8.6-6.4,15.5-14.4,20.8l-2.7-3.4c3.4-1.9,6.3-4.5,8.7-7.6c2.4-3.1,3.9-6.4,4.5-9.7h-12.3v-3.8h12.9c0.3-2.2,0.5-5.1,0.5-9
			h3.7c0,4.1-0.1,7.1-0.3,9h15.1v3.8L154.2,146z"/>
	</g>
	<g>
		<path class="st1" d="M21.4,187.5v-12.2h3.8v30.1h-3.8V191H7.1v14.5H3.3v-30.1h3.8v12.2H21.4z"/>
		<path class="st1" d="M59.2,175.4h4.9l-13.6,13.6l13.8,16.6h-5.1l-11.4-14l-1.5,1.4v12.6h-3.8v-30.1h3.8v13.1L59.2,175.4z"/>
		<path class="st1" d="M81.8,175.4v17.8c0,4.9,1.5,9.5,7.3,9.5c5.8,0,7.3-4.6,7.3-9.5v-17.8h3.8v19.1c0,6.6-4.1,11.7-11,11.7
			c-6.9,0-11-5.1-11-11.7v-19.1H81.8z"/>
		<path class="st1" d="M130.7,181.1c-1.1-1.9-2.6-2.8-4.8-2.8c-2.4,0-5,1.6-5,4.3c0,2.4,2.3,3.6,4.2,4.3l2.2,0.8
			c4.3,1.7,7.5,4,7.5,9.1c0,5.5-4.2,9.4-9.6,9.4c-4.9,0-8.7-3.6-9.3-8.4l3.8-0.8c0,3.3,2.6,5.7,5.8,5.7c3.2,0,5.6-2.7,5.6-5.9
			c0-3.2-2.6-4.6-5.2-5.7l-2.1-0.9c-3.4-1.5-6.6-3.4-6.6-7.6c0-4.9,4.3-7.8,8.9-7.8c3.4,0,6.1,1.6,7.8,4.6L130.7,181.1z"/>
		<path class="st1" d="M158.9,205.5h-3.8v-26.7H148v-3.4h18.1v3.4h-7.2V205.5z"/>
	</g>
</g>
</svg>
